<?xml version="1.0" standalone="no"?>
<!DOCTYPE svg PUBLIC "-//W3C//DTD SVG 20010904//EN"
 "http://www.w3.org/TR/2001/REC-SVG-20010904/DTD/svg10.dtd">
<svg version="1.0" xmlns="http://www.w3.org/2000/svg"
 width="499.000000pt" height="499.000000pt" viewBox="0 0 499.000000 499.000000"
 preserveAspectRatio="xMidYMid meet">
<metadata>
Created by potrace 1.14, written by Peter Selinger 2001-2017
</metadata>
<g transform="translate(0.000000,499.000000) scale(0.100000,-0.100000)"
fill="#000000" stroke="none">
<path d="M1275 3915 c-192 -27 -345 -80 -510 -180 -109 -66 -145 -95 -250
-200 -182 -182 -326 -435 -409 -721 -15 -50 -29 -102 -31 -115 -7 -36 -34
-180 -39 -211 -15 -91 -21 -212 -20 -428 0 -215 3 -258 23 -349 84 -392 315
-633 618 -646 182 -8 302 65 379 229 35 76 51 137 84 331 5 28 18 100 29 160
10 61 31 177 46 260 14 82 27 151 29 153 4 4 33 8 111 17 32 4 68 9 80 11 11
2 34 7 50 9 106 19 266 77 372 135 269 148 451 395 491 670 9 59 8 211 -1 278
-10 73 -60 200 -108 271 -108 162 -311 284 -534 321 -107 17 -299 20 -410 5z
m279 -339 c171 -41 286 -150 325 -310 16 -64 12 -212 -7 -295 -44 -198 -183
-344 -394 -415 -26 -8 -57 -17 -70 -20 -13 -2 -35 -7 -50 -10 -88 -19 -80 -22
-73 30 3 26 12 81 20 123 8 42 17 94 20 116 4 22 18 105 32 185 28 166 28 251
-2 293 -43 58 -193 71 -284 24 -68 -35 -98 -87 -117 -202 -3 -22 -7 -44 -9
-50 -3 -16 -14 -77 -20 -110 -8 -46 -44 -248 -49 -270 -2 -11 -7 -40 -11 -65
-11 -67 -14 -83 -17 -85 -2 -1 -42 3 -89 8 -80 9 -90 8 -132 -12 -52 -25 -72
-62 -71 -132 1 -54 20 -95 55 -121 19 -14 124 -41 187 -48 2 0 1 -12 -2 -27
-12 -61 -34 -185 -41 -233 -3 -19 -10 -55 -15 -80 -8 -40 -13 -68 -26 -150
-11 -68 -37 -175 -50 -206 -44 -106 -124 -97 -201 23 -32 50 -89 183 -78 183
2 0 0 11 -5 26 -26 69 -38 197 -35 384 3 185 7 230 31 375 34 206 84 367 164
527 63 126 111 195 200 291 141 151 303 239 484 264 22 3 42 6 44 8 10 9 230
-6 286 -19z"/>
<path d="M3609 3926 c-2 -2 -51 -6 -109 -10 -58 -4 -121 -9 -140 -11 -19 -3
-55 -7 -80 -10 -25 -3 -58 -7 -75 -10 -63 -10 -91 -15 -115 -20 -14 -3 -37 -7
-51 -10 -124 -23 -323 -102 -416 -166 -162 -112 -245 -287 -236 -498 3 -79 24
-166 51 -216 31 -57 85 -117 116 -130 66 -28 166 3 224 70 45 51 45 70 0 165
-27 56 -32 75 -31 145 0 96 20 144 84 199 91 77 288 125 587 140 101 6 98 8
82 -59 -5 -22 -11 -51 -14 -65 -2 -14 -25 -126 -50 -250 -25 -124 -48 -241
-51 -260 -3 -19 -10 -60 -15 -90 -6 -30 -12 -66 -15 -80 -16 -90 -45 -272 -49
-305 -3 -22 -21 -134 -40 -250 -19 -115 -37 -230 -40 -255 -3 -25 -8 -58 -11
-75 -21 -134 -30 -221 -30 -310 0 -68 4 -85 23 -113 34 -47 92 -73 166 -74 91
-2 144 17 192 67 43 45 47 57 59 178 15 162 20 213 30 277 2 14 6 48 9 75 4
28 8 61 11 75 2 14 7 48 10 75 3 28 12 91 20 140 7 50 16 108 19 130 4 22 11
65 16 95 5 30 12 71 15 90 3 19 12 71 20 115 8 44 16 91 19 105 2 14 14 79 26
145 12 66 24 131 26 145 16 88 86 448 91 464 5 17 17 18 231 12 125 -4 247 -8
272 -11 361 -32 436 -29 494 16 68 54 71 186 6 247 -48 45 -138 69 -320 87
-41 4 -88 10 -105 12 -38 5 -901 14 -906 9z"/>
</g>
</svg>
